<svg xmlns="http://www.w3.org/2000/svg" viewBox="117 205 502 245" width="502" height="245"><g fill="none"><title>Diagram 1</title><path fill="#fff" d="M117 205h502v245H117z"/><title>Layer 1</title><title>zone external - blue</title><path fill="#e1f6fe" d="M117.486 267.558h38.343v22h-38.343z"/><title>zone external - blue</title><path fill="#e1f6fe" d="M165.829 267.558h38.343v22h-38.343z"/><title>zone external - blue</title><path fill="#e1f6fe" d="M117.486 299.558h38.343v22h-38.343z"/><title>zone external - blue</title><path fill="#e1f6fe" d="M165.829 299.558h38.343v22h-38.343z"/><text transform="translate(130.651 210.558)" fill="#212121"><tspan font-family="Roboto" font-size="12" font-weight="400" x="18.53" y="11">You delete 3 </tspan> <tspan font-family="Roboto" font-size="12" font-weight="400" x="0" y="25">managed instances</tspan></text><title>zone external - blue</title><path fill="#e1f6fe" d="M117.486 331.558h38.343v22h-38.343z"/><title>zone external - blue</title><path fill="#e1f6fe" d="M165.829 331.558h38.343v22h-38.343z"/><title>zone external - blue</title><path fill="#e1f6fe" d="M117.486 363.558h38.343v22h-38.343z"/><title>zone external - blue</title><path fill="#e1f6fe" d="M165.829 363.558h38.343v22h-38.343z"/><title>zone external - blue</title><path fill="#e1f6fe" d="M214.171 363.558h38.343v22h-38.343z"/><title>zone external - blue</title><path fill="#e1f6fe" d="M301.486 299.558h38.343v22h-38.343z"/><title>zone external - blue</title><path fill="#e1f6fe" d="M349.507 299.558h38.343v22h-38.343z"/><text transform="translate(325.632 210.364)" fill="#212121"><tspan font-family="Roboto" font-size="12" font-weight="400" x="1.485" y="11">Group deletes 2 </tspan> <tspan font-family="Roboto" font-size="12" font-weight="400" x="7.28" y="25">and creates 2</tspan></text><title>zone external - blue</title><path fill="#e1f6fe" d="M301.486 331.558h38.343v22h-38.343z"/><title>zone external - blue</title><path fill="#e1f6fe" d="M349.507 331.558h38.343v22h-38.343z"/><title>zone external - blue</title><path fill="#e1f6fe" d="M301.486 363.558h38.343v22h-38.343z"/><title>zone external - blue</title><path fill="#e1f6fe" d="M349.507 363.558h38.343v22h-38.343z"/><title>zone external - blue</title><path fill="#e1f6fe" d="M398.093 363.558h38.343v22h-38.343z"/><title>zone external - blue</title><path fill="#e1f6fe" d="M483.486 302.558h38.343v22h-38.343z"/><title>zone external - blue</title><path fill="#e1f6fe" d="M531.829 302.558h38.343v22h-38.343z"/><title>zone external - blue</title><path fill="#e1f6fe" d="M580.171 302.558h38.343v22h-38.343z"/><text transform="translate(505.136 211.925)" fill="#212121"><tspan font-family="Roboto" font-size="12" font-weight="400" x="1.485" y="11">Even distribution </tspan> <tspan font-family="Roboto" font-size="12" font-weight="400" x="16.093" y="25">is achieved</tspan></text><title>zone external - blue</title><path fill="#e1f6fe" d="M483.486 334.558h38.343v22h-38.343z"/><title>zone external - blue</title><path fill="#e1f6fe" d="M531.829 334.558h38.343v22h-38.343z"/><title>zone external - blue</title><path fill="#e1f6fe" d="M580.171 334.558h38.343v22h-38.343z"/><title>zone external - blue</title><path fill="#e1f6fe" d="M483.486 366.558h38.343v22h-38.343z"/><title>zone external - blue</title><path fill="#e1f6fe" d="M531.829 366.558h38.343v22h-38.343z"/><title>zone external - blue</title><path fill="#e1f6fe" d="M580.171 366.558h38.343v22h-38.343z"/><title>zone external - green</title><path fill="#e2f3ec" d="M398.264 299.558h38v22h-38z"/><title>zone external - green</title><path fill="#e2f3ec" d="M398.264 331.558h38v22h-38z"/><text transform="translate(133.393 400.558)" fill="#212121"><tspan font-family="Roboto" font-size="12" font-weight="400" x="0" y="11">a</tspan></text><text transform="translate(181.634 401.207)" fill="#212121"><tspan font-family="Roboto" font-size="12" font-weight="400" x="0" y="11">b</tspan></text><text transform="translate(230.202 400.558)" fill="#212121"><tspan font-family="Roboto" font-size="12" font-weight="400" x="0" y="11">c</tspan></text><text transform="translate(170.507 429.636)" fill="#212121"><tspan font-family="Roboto" font-size="12" font-weight="400" x="0" y="11">zones</tspan></text><text transform="translate(317.394 400.558)" fill="#212121"><tspan font-family="Roboto" font-size="12" font-weight="400" x="0" y="11">a</tspan></text><text transform="translate(365.312 401.207)" fill="#212121"><tspan font-family="Roboto" font-size="12" font-weight="400" x="0" y="11">b</tspan></text><text transform="translate(414.124 400.558)" fill="#212121"><tspan font-family="Roboto" font-size="12" font-weight="400" x="0" y="11">c</tspan></text><text transform="translate(354.507 429.636)" fill="#212121"><tspan font-family="Roboto" font-size="12" font-weight="400" x="0" y="11">zones</tspan></text><text transform="translate(499.394 400.558)" fill="#212121"><tspan font-family="Roboto" font-size="12" font-weight="400" x="0" y="11">a</tspan></text><text transform="translate(547.634 401.207)" fill="#212121"><tspan font-family="Roboto" font-size="12" font-weight="400" x="0" y="11">b</tspan></text><text transform="translate(596.202 400.558)" fill="#212121"><tspan font-family="Roboto" font-size="12" font-weight="400" x="0" y="11">c</tspan></text><text transform="translate(533.507 429.636)" fill="#212121"><tspan font-family="Roboto" font-size="12" font-weight="400" x="0" y="11">zones</tspan></text><title>zone external - purple</title><path fill="#ede7f7" d="M214.171 267.558h38.343v22h-38.343z"/><title>zone external - purple</title><path fill="#ede7f7" d="M214.171 299.558h38.343v22h-38.343z"/><g><title>zone external - purple</title><path fill="#ede7f7" d="M214.171 331.558h38.343v22h-38.343z"/></g><g><title>zone external - purple</title><path fill="#ede7f7" d="M301.486 267.558h38.343v22h-38.343z"/></g><g><title>zone external - purple</title><path fill="#ede7f7" d="M349.507 267.558h38.343v22h-38.343z"/></g><g><path d="M259 326.864h26.1a.5.5 0 0 0 0-1H259a.5.5 0 1 0 0 1zm34.1-1h-8v1h8zm-4.354-3.146l4 4v-.707l-4 4 .708.707 4-4 .353-.354-.353-.353-4-4z" fill="#616161"/></g><g><path d="M444.276 326.558l14.333-.318 11.75.172a.5.5 0 0 0 .014-1l-11.767-.172-14.352.318a.5.5 0 0 0 .022 1zm34.096-1.028l-7.999-.117-.015 1 8 .117zm-4.307-3.21l3.941 4.058.01-.707-4.058 3.941.697.718 4.058-3.941.359-.349-.348-.358-3.941-4.059z" fill="#616161"/></g></g></svg>
